<?xml version="1.0" encoding="UTF-8"?>
<svg width="194" height="212" viewBox="0 0 194 212" xmlns="http://www.w3.org/2000/svg" xmlns:xlink="http://www.w3.org/1999/xlink"><g class="drawing-elements"><g>
  <title>Layer 1</title>
  <path id="svg_2" d="m189.15945,125.75232c-1.05323,18.56456 -21.3032,38.74174 -49.04566,26.41814c-3.64354,8.3538 -7.1496,16.7722 -10.96773,25.04655c-4.38977,9.51317 -9.1185,18.86948 -13.56014,28.35937c-1.19884,2.56139 -2.68664,3.64649 -5.66948,3.61902c-16.82024,-0.1548 -33.64324,-0.01291 -50.46335,-0.17482c-1.6309,-0.0157 -4.17536,-0.99778 -4.73519,-2.23654c-10.89672,-24.11174 -22.87651,-47.99034 -27.99259,-74.09442c-3.49478,-17.83167 -4.11162,-36.2274 -6.06011,-54.7995c44.0909,0 86.80712,0 129.81177,0c0,3.9908 0,7.90872 0,12.36319c12.44881,-1.0083 23.25376,2.12199 31.3449,11.84557c5.57158,6.69568 7.96242,14.49626 7.33758,23.65344m-145.84937,3.11098c-1.25208,-12.73726 -2.53289,-25.47182 -3.73327,-38.21396c-0.25591,-2.71646 -0.86533,-5.30654 -4.10529,-5.13379c-3.29812,0.17585 -3.59865,2.87169 -3.41712,5.5701c0.29027,4.31479 0.68998,8.62829 0.7963,12.94841c0.68307,27.75693 11.00693,52.85974 21.35846,77.95932c0.1885,0.45706 0.38277,1.12854 0.73845,1.26173c1.42732,0.53447 3.22749,1.59662 4.30074,1.12451c1.07194,-0.47151 1.89436,-2.51301 1.98706,-3.92146c0.08981,-1.36438 -0.90025,-2.79474 -1.39494,-4.20351c-5.45057,-15.52182 -10.89701,-31.04507 -16.53038,-47.39135m127.38937,-2.12789c1.82682,-12.02044 -7.27704,-20.90754 -18.25267,-17.9322c-2.40153,0.65104 -3.50729,1.64631 -3.75833,4.32471c-0.55766,5.95 -1.76355,11.83859 -2.34639,17.78736c-0.13499,1.37778 0.76022,3.5084 1.87546,4.25301c8.48746,5.66678 17.86931,2.34123 22.48193,-8.43288z" fill="#c9863d" class="" data-fill-color="#c9863d"/>
  <path id="svg_3" d="m67.57278,44.81676c-4.44854,-4.77962 -8.56559,-9.35655 -12.92175,-13.69331c-9.61441,-9.57159 -9.40451,-15.12215 1.18798,-23.72524c1.62655,-1.32107 3.42722,-2.42776 6.17898,-2.91782c-0.61243,1.57027 -1.17643,3.1615 -1.84549,4.70726c-3.31343,7.65529 -2.60472,11.02185 3.53008,16.84842c4.34428,4.12602 8.8449,8.10952 12.9341,12.47653c5.3834,5.74914 5.37271,9.48415 -0.24749,15.01292c-3.07476,3.02474 -6.89277,5.29394 -11.03815,7.42407c1.24076,-5.45514 6.63716,-9.8882 2.22174,-16.13283z" fill="#c9863d" class="" data-fill-color="#c9863d"/>
  <path id="svg_4" d="m75.24121,29.72541c-9.63234,-8.68465 -6.45371,-18.4801 9.06178,-25.90467c-0.81683,2.07839 -1.33371,3.54889 -1.96315,4.96951c-3.5805,8.08098 -2.83269,11.48181 3.73004,17.6328c4.36629,4.09236 8.84277,8.09724 12.89318,12.48877c4.85757,5.26669 4.94121,8.77133 0.01013,13.89012c-3.20695,3.32903 -7.2626,5.84047 -10.93802,8.7182c-0.45444,-0.41286 -0.9089,-0.82573 -1.36334,-1.23859c0.82125,-1.47542 1.49307,-3.06185 2.49138,-4.40575c3.17483,-4.27387 2.88172,-8.48564 -0.51077,-12.27245c-4.21006,-4.69943 -8.75811,-9.09605 -13.41123,-13.87794z" fill="#c9863d" class="selected" data-fill-color="#c9863d"/>
  <path id="svg_5" d="m102.6132,19.09438c2.52826,3.26743 4.81442,6.29353 7.40096,9.03635c3.86816,4.10187 8.08881,7.87521 11.89404,12.03138c3.24029,3.53912 3.52571,7.7017 0.11509,11.19623c-3.62327,3.71243 -7.78788,6.8965 -11.71611,10.31129c-0.52114,-0.43047 -1.04228,-0.86094 -1.56341,-1.29141c0.72177,-1.44315 1.25083,-3.02996 2.2002,-4.30344c3.30488,-4.43306 2.95972,-8.72188 -0.54513,-12.69352c-3.39965,-3.85242 -6.83428,-7.74505 -10.70762,-11.09501c-11.56196,-9.99959 -11.40866,-18.88877 5.44203,-28.10744c-0.88548,4.90216 -1.75661,9.72482 -2.52005,14.91557z" fill="#c9863d" class="" data-fill-color="#c9863d"/>
  <path id="svg_6" d="m43.40299,129.27499c5.54047,15.93459 10.98691,31.45784 16.43748,46.97966c0.49469,1.40877 1.48475,2.83913 1.39494,4.20351c-0.0927,1.40845 -0.91512,3.44995 -1.98706,3.92146c-1.07325,0.47211 -2.87342,-0.59004 -4.30074,-1.12451c-0.35568,-0.13319 -0.54995,-0.80467 -0.73845,-1.26173c-10.35153,-25.09958 -20.67539,-50.20239 -21.35846,-77.95932c-0.10632,-4.32012 -0.50603,-8.63362 -0.7963,-12.94841c-0.18153,-2.69841 0.119,-5.39425 3.41712,-5.5701c3.23996,-0.17275 3.84938,2.41733 4.10529,5.13379c1.20038,12.74214 2.48119,25.4767 3.82618,38.62565z" fill="#F3F0F0"/>
  <path id="svg_7" d="m170.57297,127.12263c-4.48613,10.38689 -13.86798,13.71244 -22.35544,8.04566c-1.11524,-0.74461 -2.01045,-2.87523 -1.87546,-4.25301c0.58284,-5.94877 1.78873,-11.83736 2.34639,-17.78736c0.25104,-2.6784 1.3568,-3.67367 3.75833,-4.32471c10.97563,-2.97534 20.07949,5.91176 18.12618,18.31942z" fill="#FAF8F8"/>
 </g></g></svg>