<?xml version="1.0" encoding="utf-8"?>
<!-- Generator: Adobe Illustrator 22.1.0, SVG Export Plug-In . SVG Version: 6.00 Build 0)  -->
<svg version="1.1" xmlns="http://www.w3.org/2000/svg"  x="0px" y="0px" width="26.5px"
	 height="26.5px" viewBox="0 0 26.5 26.5" enable-background="new 0 0 26.5 26.5" xml:space="preserve">
<g id="cafe-15">
	<circle opacity="0.75" fill="#FFFFFF" cx="13.2341" cy="13.0246" r="10"/>
</g>
<g id="picnic-site-15">
	<path id="rect4760" fill="#2E4328" d="M9.75,8.75c-0.554,0-1,0.446-1,1s0.446,1,1,1h1.2969l-0.6446,2H8.25c-0.554,0-1,0.446-1,1
		s0.446,1,1,1h1.5098L8.791,17.7598c-0.1284,0.3939,0.0868,0.8173,0.4807,0.9457s0.8173-0.0868,0.9457-0.4807
		c0.0005-0.0013,0.0009-0.0027,0.0013-0.004l1.1172-3.4708h3.8281l1.1172,3.4707c0.1273,0.3943,0.5501,0.6107,0.9443,0.4834
		c0.3942-0.1273,0.6107-0.5501,0.4834-0.9443l0,0L16.7402,14.75H18.25c0.554,0,1-0.446,1-1s-0.446-1-1-1h-2.1523l-0.6446-2H16.75
		c0.554,0,1-0.446,1-1s-0.446-1-1-1H9.75z M12.623,10.75h1.254l0.6445,2h-2.543L12.623,10.75z"/>
</g>
</svg>
